<svg version="1.2" xmlns="http://www.w3.org/2000/svg" viewBox="0 0 512 512" class="fg">
	<path fill-rule="evenodd" class="s0" d="m469.23 391.05c-27.53-0.76-48.89 2.06-66.8 9.59-5.15 2.07-13.42 2.07-14.1 8.56 2.75 2.72 3.08 7.18 5.5 10.95 4.13 6.85 11.37 16.07 17.9 20.86l22.03 15.74c13.43 8.21 28.58 13 41.66 21.22 7.58 4.79 15.15 10.95 22.73 16.09 3.86 2.74 6.19 7.19 11.02 8.89v-1.03c-2.41-3.07-3.1-7.52-5.5-10.95l-10.35-9.92c-9.97-13.34-22.37-24.99-35.8-34.56-11.02-7.53-35.12-17.79-39.59-30.44l-0.68-0.77c7.56-0.77 16.51-3.43 23.75-5.48 11.72-3.07 22.38-2.4 34.42-5.47l16.54-4.8v-3.06c-6.2-6.16-10.67-14.37-17.21-20.19-17.56-15.05-36.85-29.77-56.82-42.09-10.67-6.84-24.45-11.29-35.81-17.1-4.14-2.05-11.02-3.08-13.43-6.5-6.21-7.52-9.64-17.45-14.12-26.35l-28.23-59.54c-6.19-13.34-9.99-26.69-17.55-39.01-35.47-58.17-74.04-93.41-133.26-127.97-12.73-7.19-27.88-10.28-43.99-14.04l-25.82-1.38c-5.52-2.39-11.02-8.89-15.84-11.98-19.63-12.31-70.24-39-84.71-3.83-9.3 22.24 13.77 44.13 21.6 55.43 5.87 7.87 13.43 16.77 17.58 25.66 2.31 5.82 3.08 11.98 5.5 18.14 5.5 15.06 10.67 31.83 17.9 45.86 3.86 7.19 7.91 14.73 12.74 21.22 2.75 3.84 7.57 5.48 8.6 11.64-4.82 6.85-5.16 17.1-7.91 25.67-12.4 38.66-7.58 86.57 9.98 115.03 5.52 8.56 18.52 27.38 36.16 20.19 15.5-6.16 12.04-25.66 16.51-42.77 1.05-4.1 0.35-6.84 2.41-9.59v0.77l14.12 28.4c10.68 16.76 29.28 34.22 44.76 45.86 8.26 6.16 14.8 16.77 25.13 20.53v-1.03h-0.68c-2.07-3.07-5.17-4.45-7.92-6.85-6.2-6.15-13.08-13.69-17.91-20.53-14.45-19.15-27.19-40.37-38.55-62.27-5.52-10.61-10.34-22.24-14.8-32.85-2.09-4.11-2.09-10.27-5.52-12.31-5.17 7.51-12.73 14.03-16.54 23.26-6.54 14.71-7.22 32.85-9.63 51.67-1.39 0.35-0.77 0-1.39 0.77-11-2.73-14.8-14.04-18.93-23.61-10.32-24.29-12.05-63.3-3.1-91.36 2.41-7.19 12.75-29.77 8.62-36.61-2.08-6.51-8.95-10.26-12.75-15.4-4.48-6.51-9.28-14.71-12.39-21.9-8.25-19.17-12.38-40.38-21.34-59.54-4.15-8.9-11.37-18.14-17.23-26.35-6.54-9.24-13.76-15.74-18.93-26.69-1.72-3.83-4.12-9.92-1.37-14.03 0.68-2.74 2.07-3.83 4.81-4.45 4.47-3.83 17.22 1.03 21.7 3.07 12.73 5.14 23.4 9.92 34.08 17.1 4.82 3.42 9.99 9.93 16.19 11.64h7.24c11.02 2.4 23.4 0.77 33.72 3.84 18.25 5.83 34.77 14.37 49.59 23.62 45.1 28.4 82.29 68.78 107.42 117.03 4.13 7.87 5.85 15.06 9.65 23.27 7.24 16.77 16.19 33.88 23.4 50.31 7.24 16.08 14.13 32.52 24.45 45.86 5.17 7.19 25.82 10.95 35.11 14.71 6.89 3.07 17.56 5.83 23.77 9.59 11.7 7.18 23.41 15.4 34.42 23.27 5.5 4.09 22.73 12.65 23.75 19.48zm-351.12-297.35q-1.78-0.02-3.56 0.08-1.78 0.1-3.55 0.31-1.77 0.22-3.52 0.55-1.75 0.32-3.48 0.77v0.76h0.68c2.75 5.48 7.58 9.24 11.02 14.04l7.92 16.43 0.68-0.77c4.83-3.42 7.24-8.9 7.24-17.1-2.07-2.4-2.41-4.8-4.13-7.19-2.06-3.42-6.54-5.14-9.3-7.88z"/>
	<g id="Layer 1">
	</g>
</svg>
