<svg id="Layer_1" data-name="Layer 1" xmlns="http://www.w3.org/2000/svg" viewBox="0 0 2452.24 1992" class="fg">
  <path d="m1278.4,1120c4.51-81.72,44.62-153.82,104.99-204.86,59.26-50.24,139.08-80.82,226.02-80.82,87.04.1,166.76,30.68,226.02,80.82,60.37,51.14,100.48,123.14,105.09,204.86,4.61,84.03-29.18,162.15-88.44,220-60.37,58.86-146.4,95.86-242.67,95.86s-182.4-37-242.77-95.86c-59.16-57.86-92.86-135.97-88.24-220h0Z"/>
  <path d="m751.06,1285.46c.6,31.89,10.83,94.06,26.07,142.69,32.19,102.78,86.74,197.94,162.75,281.77,78.01,86.14,173.88,155.33,284.78,204.36,116.62,51.64,242.87,78.01,373.93,77.71,131.06-.2,257.31-26.97,373.83-79.02,110.8-49.64,206.67-119.03,284.58-205.36,75.91-84.23,130.36-179.49,162.55-282.28,16.04-51.24,26.37-104.09,30.58-157.53,4.01-52.14,2.31-104.69-5.01-156.53-14.44-101.68-49.64-197.04-103.79-283.98-49.64-79.82-113.41-149.81-189.32-208.77l.1-.1L1386.2,30.41c-.6-.5-1.3-1.1-1.91-1.6-50.44-38.51-134.87-38.41-190.12.3-55.95,39.11-62.27,103.79-12.63,144.6l-.2.1,319.48,259.91-973.98,1h-1.3c-80.42.1-157.83,52.95-173.18,119.63-15.64,67.99,39.01,124.34,122.74,124.74l-.1.3,493.66-1L87.73,1354.55c-1.1.9-2.31,1.7-3.31,2.51-83.03,63.57-109.9,169.47-57.66,236.45,53.15,68.09,166.06,68.19,250.09.3l480.72-393.38s-7.02,53.15-6.52,85.03h0Zm1235.39,177.79c-99.07,101.08-237.65,158.23-387.77,158.44-150.21.3-288.89-56.46-387.97-157.23-48.43-49.13-83.93-105.49-105.99-165.76-21.56-59.16-29.78-122.44-24.27-185.11,5.31-61.17,23.36-120.63,53.15-174.38,28.98-52.54,68.79-99.97,117.92-140.08,96.26-78.52,218.8-120.93,347.15-121.13s250.79,42.02,347.15,120.13c49.03,40.01,88.84,87.24,117.72,139.68,29.78,53.75,47.93,113.11,53.25,174.28,5.52,62.77-2.81,125.95-24.37,185.21-22.06,60.17-57.66,116.62-105.99,165.96h0Z"/>
</svg>
