<svg class="fg" id="Layer_1" xmlns="http://www.w3.org/2000/svg" viewBox="0 0 2498.49 2498.46"><path  d="M2484.71,293.65c0-154.52-125.41-279.93-279.93-279.93s-279.93,125.41-279.93,279.93,125.41,279.94,279.93,279.94,279.93-125.41,279.93-279.94"/><path  d="M1744.55,1521.61l-45.69,5.88c-27.38,3.63-47.98,9.37-61.78,17.19-23.38,13.12-35.06,34.08-35.06,62.85,0,21.8,7.97,38.96,23.93,51.54h0c15.97,12.58,34.86,18.86,56.71,18.86,26.59,0,52.34-6.15,77.28-18.45,42-20.41,63-53.81,63-100.22v-60.8c-9.22,5.9-21.09,10.81-35.62,14.75s-28.78,6.74-42.75,8.41Z"/><path  d="M1249.01,293.65c-527.57,0-955.75,428.18-955.75,955.76s428.18,955.75,955.76,955.75,955.75-428.18,955.75-955.76c0-527.58-428.19-955.76-955.76-955.76ZM990.48,1727.07h-393.12v-616.99h83.58v543.5h309.54v73.5ZM1420.56,1727.07h-71.39l.84-66.36c-9.63,17.08-21.58,31.49-35.88,43.26-28.29,23.52-62.64,35.28-103.03,35.28-62.92,0-105.78-21.43-128.57-64.27-12.36-22.95-18.55-53.61-18.55-91.98v-305.76h77.29v298.62c0,22.96,3.54,41.73,10.64,56.28,13.09,26.88,37.49,40.33,73.21,40.33,51.27,0,86.17-23.54,104.72-70.57,10.09-25.21,15.14-59.79,15.14-103.75v-220.92h75.59v449.82ZM1948.52,1673.32v55.86c-11.76,3.35-20.72,5.45-26.88,6.29-6.16.84-14.57,1.27-25.2,1.27-26.04,0-44.95-9.25-56.71-27.72-6.16-9.79-10.5-23.65-13.02-41.57-15.41,20.17-37.53,37.66-66.37,52.5-28.84,14.82-60.62,22.25-95.34,22.25-41.73,0-75.81-12.66-102.27-37.96-26.46-25.3-39.7-56.98-39.7-95.02,0-41.66,13.03-73.96,39.06-96.89,26.04-22.93,60.2-37.06,102.48-42.38l120.55-15.09h0c17.35-2.24,28.97-9.5,34.86-21.81,3.34-6.74,5.03-16.44,5.03-29.09,0-25.85-9.16-44.62-27.46-56.28-18.31-11.67-44.5-17.5-78.58-17.5-39.4,0-67.35,10.69-83.84,32.08-9.23,11.82-15.23,29.41-18.03,52.76h-70.56c1.4-55.61,19.37-94.28,53.91-116.04,34.53-21.76,74.6-32.64,120.19-32.64,52.85,0,95.79,10.08,128.79,30.23,32.71,20.17,49.08,51.52,49.08,94.09v259.16c0,7.83,1.61,14.14,4.83,18.89,3.21,4.76,10.01,7.13,20.37,7.13,3.36,0,7.13-.21,11.33-.62,4.21-.42,8.69-1.04,13.45-1.88ZM1645.01,1133.36c-154.52,0-279.94-125.41-279.94-279.93s125.42-279.94,279.94-279.94,279.93,125.42,279.93,279.94-125.41,279.93-279.93,279.93Z"/><path  d="M1293.47,2498.46l-1-28.66c35.43-1.24,71.16-4.03,106.18-8.3l3.48,28.46c-35.84,4.37-72.4,7.23-108.66,8.5h0ZM1184.46,2497.58c-36.2-1.86-72.71-5.32-108.51-10.29l3.94-28.4c34.98,4.85,70.66,8.23,106.04,10.05l-1.46,28.63h0ZM1509.66,2472.01l-5.96-28.05c34.62-7.34,69.31-16.31,103.12-26.66l8.4,27.41c-34.77,10.64-70,19.74-105.57,27.29h0ZM968.74,2467.58c-35.28-8.1-70.63-17.87-105.09-29.03l8.84-27.28c33.79,10.95,68.04,20.41,102.66,28.36l-6.41,27.95ZM1717.96,2408.26l-10.77-26.57c32.91-13.34,65.22-28.11,96.84-44.27l13.05,25.54c-32.36,16.54-65.43,31.65-99.11,45.3ZM761.46,2400.36c-33.48-14.22-66.32-29.9-98.43-46.98l13.48-25.31c31.25,16.64,63.61,32.08,96.16,45.9l-11.21,26.4h0ZM1911.87,2309.15l-15.23-24.3c30.1-18.88,59.36-39.05,87.71-60.45l17.29,22.88c-29.02,21.9-58.97,42.54-89.77,61.86h0ZM569.1,2297.98c-30.48-19.83-60.09-40.96-88.75-63.35l17.66-22.6c28,21.88,56.93,42.54,86.72,61.91l-15.62,24.03ZM2085.7,2177.87l-19.2-21.29c26.29-23.7,51.86-48.83,75.98-74.7l20.97,19.56c-24.81,26.58-50.75,52.08-77.75,76.43h0ZM397.42,2163.83c-26.59-24.79-52.11-50.72-76.46-77.71l21.29-19.2c23.81,26.38,48.74,51.71,74.73,75.94l-19.55,20.98h0ZM2234.28,2018.55l-22.59-17.66c21.89-27.99,42.56-56.92,61.94-86.7l24.03,15.64c-19.84,30.47-40.99,60.07-63.39,88.71ZM251.49,2002.09c-21.92-29-42.57-58.94-61.89-89.74l24.29-15.23c18.89,30.08,39.07,59.34,60.49,87.68l-22.88,17.29h0ZM2353.12,1835.93l-25.3-13.48c16.65-31.25,32.11-63.6,45.95-96.14l26.39,11.22c-14.24,33.47-29.93,66.3-47.03,98.4ZM135.75,1817.59c-16.55-32.36-31.69-65.42-45.36-99.1l26.56-10.78c13.36,32.9,28.14,65.2,44.32,96.82,0,0-25.52,13.07-25.52,13.07ZM2438.37,1635.36l-27.27-8.86c10.97-33.78,20.45-68.03,28.42-102.64l27.94,6.43c-8.16,35.43-17.87,70.49-29.09,105.07h0ZM53.9,1615.75c-10.65-34.76-19.78-69.98-27.34-105.54l28.05-5.96c7.39,34.74,16.31,69.14,26.71,103.1,0,0-27.41,8.4-27.41,8.4ZM2487.25,1423.08l-28.4-3.96c4.87-34.96,8.27-70.63,10.09-106.03l28.64,1.48c-1.88,36.3-5.33,72.5-10.33,108.5ZM8.55,1402.71c-4.41-36.08-7.27-72.34-8.55-108.66l28.66-1.02c1.24,35.42,4.06,71.14,8.35,106.18l-28.46,3.5ZM2469.83,1206.56c-1.23-35.35-4.04-71.09-8.36-106.21l28.46-3.5c4.41,35.95,7.29,72.53,8.55,108.71l-28.65,1ZM29.46,1186.49l-28.63-1.45c1.84-36.21,5.27-72.72,10.22-108.52l28.41,3.93c-4.84,34.98-8.2,70.65-10,106.04ZM2443.89,995.27c-7.39-34.75-16.3-69.17-26.68-103.15l27.42-8.38c10.63,34.78,19.74,70,27.3,105.57l-28.05,5.97h0ZM58.66,975.7l-27.95-6.41c8.12-35.44,17.79-70.51,28.98-105.1l27.29,8.84c-10.93,33.79-20.38,68.05-28.32,102.67ZM2381.65,791.67c-13.26-32.81-28.13-65.43-44.19-96.95l25.55-13.02c16.5,32.41,31.59,65.51,45.22,99.23l-26.58,10.74ZM124.23,773.2l-26.4-11.19c14.2-33.49,29.86-66.34,46.93-98.46l25.31,13.47c-16.68,31.38-31.97,63.47-45.85,96.18h0ZM224.16,585.21l-24.04-15.62c19.81-30.49,40.94-60.11,63.31-88.78l22.6,17.65c-21.86,28.01-42.5,56.95-61.87,86.75h0ZM355.18,417.39l-21-19.53c24.78-26.61,50.7-52.14,77.68-76.51l19.22,21.29c-26.36,23.82-51.69,48.76-75.9,74.76h0ZM513.15,274.72l-17.3-22.85c28.99-21.93,58.92-42.6,89.71-61.94l15.25,24.28c-30.08,18.9-59.33,39.09-87.66,60.53h0ZM1914.46,224.92l-1.56-1.01,15.59-24.06,1.51.98-15.54,24.09h0ZM1821.03,169.97c-31.4-16.63-63.51-31.88-96.23-45.72l11.16-26.41c33.49,14.16,66.35,29.78,98.49,46.8l-13.42,25.33h0ZM693.38,161.53l-13.09-25.52c32.35-16.57,65.41-31.72,99.08-45.41l10.79,26.56c-32.89,13.37-65.19,28.18-96.79,44.37h0ZM1624.94,87.09c-33.81-10.92-68.08-20.37-102.71-28.32l6.41-27.95c35.29,8.09,70.66,17.84,105.13,28.98l-8.83,27.29ZM890.52,81.45l-8.42-27.41c34.76-10.67,69.97-19.81,105.53-27.39l5.98,28.04c-34.74,7.41-69.13,16.35-103.09,26.77ZM1417.45,39.49c-35.06-4.88-70.74-8.26-106.07-10.06l1.46-28.63c36.15,1.84,72.69,5.3,108.56,10.29l-3.96,28.4ZM1098.64,37.06l-3.52-28.46c35.84-4.41,72.4-7.3,108.66-8.6l1.03,28.65c-35.44,1.27-71.15,4.1-106.17,8.41Z"/></svg>
