<svg class="fg" id="Layer_1" xmlns="http://www.w3.org/2000/svg" viewBox="0 0 1901.22 2283.52"><path  d="m1901.05,666.83c-.99-43.19-6.29-86.14-15.82-128.3-9.53-42.12-23.21-83.21-40.9-122.62-17.66-39.42-39.2-76.98-64.3-112.14v-1.64C1567.87-1.36,1148.82-91.31,845.87,101.64L313.83,440.61c-35.79,22.49-69.18,48.64-99.56,78.02-30.42,29.39-57.67,61.86-81.34,96.89-23.67,35.03-43.64,72.42-59.61,111.57-15.93,39.16-27.76,79.87-35.3,121.48-6.29,34.88-9.72,70.25-10.18,105.7-.5,35.49,1.98,70.93,7.36,105.96,5.37,35.07,13.65,69.64,24.7,103.33,11.05,33.7,24.89,66.4,41.36,97.81-11.33,17.21-21.78,34.99-31.33,53.25-9.57,18.26-18.18,37.01-25.84,56.15-7.66,19.13-14.33,38.65-20.01,58.47s-10.33,39.91-13.99,60.19c-15.2,85.27-13.2,172.73,5.91,257.21,9.53,42.12,23.21,83.21,40.9,122.62,17.69,39.41,39.22,77,64.38,112.14,212.16,303.48,631.17,393.44,934.12,200.49l532.03-337.56c35.79-22.53,69.11-48.71,99.48-78.14,30.37-29.4,57.62-61.87,81.3-96.89,23.67-34.99,43.64-72.38,59.61-111.53,15.97-39.11,27.83-79.82,35.41-121.4,6.29-34.88,9.68-70.21,10.14-105.66s-2.02-70.9-7.43-105.93c-5.37-35.03-13.65-69.56-24.74-103.26-11.09-33.66-24.93-66.36-41.39-97.77,11.32-17.19,21.8-34.99,31.37-53.25,9.53-18.26,18.18-37.01,25.84-56.15,7.66-19.13,14.37-38.65,20.09-58.47,5.68-19.78,10.41-39.87,14.1-60.15,7.55-42.54,10.83-85.72,9.83-128.91Zm-273.22,70.97c-.8,4.19-1.64,8.39-2.59,12.54-.91,4.15-1.91,8.31-2.97,12.43-1.03,4.15-2.17,8.27-3.35,12.35-1.18,4.12-2.4,8.2-3.74,12.24l-10.18,30.61-27.14-20.39c-15.7-11.55-31.9-22.37-48.52-32.55-16.62-10.14-33.69-19.59-51.11-28.32-34.87-17.4-71.15-31.83-108.44-43.15l-20.43-5.91,1.87-20.39c.57-6.98.53-13.99-.11-20.93-.61-6.94-1.87-13.84-3.7-20.58-1.87-6.71-4.27-13.3-7.28-19.59-2.97-6.33-6.52-12.35-10.56-18.07-7.44-10.45-16.42-19.7-26.64-27.44-10.21-7.78-21.54-13.95-33.62-18.3-24.26-8.8-50.63-9.99-75.59-3.39-2.9.76-5.76,1.64-8.54,2.59-2.82.99-5.6,2.1-8.35,3.28-2.71,1.18-5.41,2.52-8.04,3.89-2.63,1.41-5.22,2.9-7.74,4.5l-532.22,338.4c-6.48,4.08-12.54,8.84-18.03,14.18-5.49,5.34-10.44,11.24-14.75,17.57-4.27,6.36-7.89,13.15-10.79,20.24-2.9,7.13-5.03,14.48-6.4,22.03-1.33,7.74-1.91,15.59-1.72,23.44.46,15.72,3.99,31.19,10.41,45.55,3.23,7.15,7.15,13.96,11.7,20.35,7.36,10.52,16.28,19.9,26.45,27.75,10.16,7.89,21.45,14.19,33.5,18.68,24.23,9.01,50.63,10.46,75.7,4.15,2.86-.8,5.72-1.68,8.54-2.67,2.78-.99,5.57-2.1,8.31-3.28,2.73-1.19,5.41-2.48,8.04-3.89,2.63-1.37,5.22-2.86,7.74-4.46l204-129.29c8.35-5.34,16.85-10.37,25.58-15.02,8.69-4.69,17.57-9,26.64-13,9.04-3.97,18.23-7.58,27.56-10.83,9.34-3.28,18.79-6.17,28.36-8.69,41.62-10.82,84.62-15.25,127.58-13.11,42.96,2.17,85.3,10.86,125.63,25.8,40.29,14.94,78.1,35.94,112.06,62.32,34,26.34,63.73,57.71,88.24,93.04,15.09,21.15,28.05,43.72,38.69,67.43,10.63,23.69,18.88,48.39,24.62,73.72,5.72,25.31,8.92,51.15,9.53,77.11.61,26-1.41,51.95-5.95,77.49-4.49,25.07-11.58,49.61-21.15,73.22-9.56,23.61-21.57,46.16-35.83,67.28-14.22,21.12-30.61,40.71-48.9,58.43s-38.38,33.5-59.96,47.07l-532.26,338.97c-8.35,5.3-16.89,10.29-25.58,14.94-8.73,4.65-17.61,8.96-26.68,12.92-9.03,4-18.22,7.62-27.56,10.9-9.3,3.28-18.75,6.21-28.28,8.77h0c-41.64,10.82-84.69,15.21-127.65,13.04-42.96-2.21-85.34-10.9-125.67-25.88-40.33-14.96-78.14-35.97-112.14-62.32-33.97-26.37-63.72-57.75-88.24-93.08-15.13-21.15-28.09-43.72-38.69-67.43-10.63-23.69-18.86-48.39-24.59-73.72-5.68-25.35-8.88-51.19-9.45-77.15-.57-25.96,1.45-51.91,6.02-77.49.72-4.15,1.56-8.31,2.48-12.43.88-4.15,1.87-8.27,2.93-12.35,1.03-4.12,2.17-8.2,3.39-12.27,1.18-4.04,2.48-8.08,3.81-12.08l10.02-30.61,27.33,20.39c15.67,11.43,31.83,22.22,48.41,32.28,16.58,10.1,33.58,19.48,50.96,28.09,17.34,8.65,35.11,16.58,53.13,23.71,18.03,7.17,36.36,13.53,54.96,19.13l20.39,5.91-1.83,20.39c-.98,13.88.46,27.82,4.27,41.2,1.87,6.71,4.35,13.19,7.36,19.44,3.01,6.25,6.56,12.24,10.6,17.88,7.4,10.64,16.39,20.09,26.64,28.02,10.22,7.93,21.61,14.26,33.77,18.75s24.89,7.09,37.85,7.74c12.92.69,25.88-.65,38.42-3.93,2.9-.76,5.72-1.64,8.54-2.63,2.82-.99,5.6-2.06,8.31-3.28,2.74-1.18,5.41-2.48,8.08-3.89,2.63-1.37,5.18-2.86,7.7-4.46l531.23-339.01c6.51-4.08,12.58-8.84,18.11-14.18,5.53-5.37,10.44-11.28,14.75-17.65s7.89-13.19,10.79-20.32c2.86-7.13,4.99-14.52,6.37-22.07,1.33-7.74,1.91-15.55,1.72-23.4-.19-7.81-1.18-15.59-2.93-23.25-1.72-7.62-4.23-15.06-7.47-22.22-3.2-7.13-7.17-13.91-11.74-20.28-7.39-10.63-16.35-20.05-26.61-27.98-10.25-7.93-21.65-14.26-33.77-18.75-12.15-4.5-24.91-7.12-37.85-7.78-12.96-.65-25.92.69-38.46,3.93-2.86.76-5.72,1.64-8.54,2.63-2.82.99-5.56,2.06-8.31,3.24-2.74,1.22-5.41,2.52-8.04,3.93-2.63,1.37-5.22,2.9-7.74,4.5l-204,129.52c-8.31,5.26-16.85,10.22-25.54,14.87-8.73,4.61-17.57,8.92-26.61,12.88-9.03,3.96-18.22,7.59-27.52,10.83-9.3,3.28-18.72,6.17-28.24,8.73-41.59,10.75-84.54,15.09-127.42,12.88-42.88-2.21-85.15-10.94-125.4-25.84-40.25-14.94-77.99-35.94-111.91-62.24-33.92-26.3-63.65-57.59-88.16-92.85-15.06-21.15-27.98-43.76-38.54-67.47-10.6-23.71-18.79-48.41-24.47-73.72-5.68-25.35-8.8-51.19-9.34-77.15-.57-25.92,1.45-51.88,6.06-77.41,9.01-50.28,28.41-98.13,56.95-140.5,28.56-42.37,65.65-78.3,108.9-105.51l532.87-338.97c8.27-5.26,16.73-10.22,25.39-14.87,8.65-4.61,17.5-8.92,26.45-12.88,8.98-3.97,18.11-7.58,27.37-10.83,9.22-3.28,18.6-6.21,28.09-8.77,41.62-10.79,84.66-15.21,127.58-13.04,42.96,2.21,85.3,10.9,125.63,25.88,40.33,14.94,78.1,35.98,112.1,62.32,33.96,26.38,63.7,57.78,88.2,93.12,15.09,21.12,28.09,43.68,38.73,67.39s18.87,48.37,24.62,73.72c5.72,25.35,8.92,51.19,9.49,77.15.61,25.96-1.37,51.91-5.95,77.49Z"/></svg>
