<svg id="Layer_1" xmlns="http://www.w3.org/2000/svg" viewBox="0 0 1226.23 1156.38" class="fg">
  <g>
    <path d="m966.48,936.49c-.75,10.65-9.22,19.12-19.87,19.88l-212.07,15.12h-1.54c-10.62-.01-19.64-7.8-21.19-18.32l-12.16-82.46h-173.04l-12.16,82.46c-1.63,11.1-11.55,19.07-22.74,18.26l-212.07-15.12c-10.64-.77-19.1-9.24-19.84-19.88l-6.17-88.36-179.04-17.2c.08,19.24.32,40.32.32,44.52,0,189.07,239.85,279.94,537.84,280.99h.74c297.99-1.05,537.76-91.92,537.76-280.99,0-4.28.27-25.26.35-44.52l-178.95,17.26-6.17,88.36Z"/>
    <path d="m1116.35,212.2c-37.57,19-73.98,40.18-109.06,63.45-17.32-17.23-36.85-31.32-56.02-46.06-18.84-15.12-40.08-26.23-60.2-39.15,5.99-44.65,8.96-88.59,10.15-134.47C849.25,29.82,793.85,12.48,737.8.04c-22.38,37.6-42.84,78.32-60.66,118.13-21.13-3.53-42.37-4.83-63.62-5.1h-.82c-21.29.27-42.5,1.57-63.65,5.1-17.81-39.81-38.25-80.53-60.67-118.13l.03-.04c-56.02,12.46-111.42,29.79-163.38,55.94,1.19,45.87,4.16,89.84,10.16,134.47-20.18,12.93-41.38,24.01-60.22,39.15-19.15,14.72-38.71,28.83-56.05,46.04-35.08-23.27-71.5-44.45-109.06-63.44C69.15,255.98,31.09,303.27,0,356.18c23.38,37.84,47.81,73.32,74.18,106.97h.74v324.75c.6,0,1.19,0,1.78.13l199.09,19.2c10.42,1.01,18.59,9.4,19.32,19.84l6.14,87.89,173.67,12.39,11.97-81.12c1.56-10.51,10.57-18.3,21.2-18.3h210.04c10.63,0,19.66,7.79,21.21,18.3l11.96,81.12,173.68-12.39,6.14-87.89c.74-10.44,8.9-18.83,19.32-19.84l199.01-19.2c.59,0,1.18-.13,1.77-.13v-25.91h.08v-298.81h.74c26.37-33.67,50.78-69.15,74.19-106.99-31.08-52.91-69.17-100.2-109.88-144.01Zm-786.72,501.84c-65.27-.69-118.01-53.43-118.7-118.7,0-66.24,53.73-119.93,119.97-119.93s119.98,53.67,119.98,119.93c-.7,66.26-54.98,119.4-121.24,118.7Zm322.14-22.4c0,19.39-17.32,35.1-38.66,35.1s-38.62-15.71-38.62-35.1v-110.45c0-19.36,17.3-35.1,38.62-35.1s38.66,15.74,38.66,35.1v110.45Zm363.54-96.29c0,66.26-53.7,119.97-119.95,119.98h-.05c-66.26-.01-119.95-53.74-119.94-119.99h0c0-66.25,53.71-119.93,119.99-119.93s119.95,53.69,119.95,119.93h0Z"/>
  </g>
</svg>
