<svg class="fg" id="Layer_1" xmlns="http://www.w3.org/2000/svg" xmlns:xlink="http://www.w3.org/1999/xlink" viewBox="0 0 2493.73 2480.76"><path  d="M1237.88,0c-633.07,0-593.54,274.53-593.54,274.53l.7,284.43h604.12v85.39H405.1S0,598.41,0,1237.17s353.58,616.12,353.58,616.12h211.02v-296.42s-11.38-353.58,347.94-353.58h599.18s336.64,5.44,336.64-325.35V331S1899.48,0,1237.88,0ZM904.77,191.27c59.97-.05,108.63,48.52,108.68,108.49,0,.07,0,.13,0,.2.05,59.97-48.52,108.63-108.49,108.68-.07,0-.13,0-.2,0-59.97.05-108.63-48.52-108.68-108.49,0-.07,0-.13,0-.2-.05-59.97,48.52-108.63,108.49-108.68.07,0,.13,0,.2,0Z"/><path  d="M1255.86,2480.76c633.07,0,593.54-274.53,593.54-274.53l-.7-284.42h-604.13v-85.39h844.07s405.1,45.94,405.1-592.83-353.58-616.11-353.58-616.11h-211.02v296.41s11.38,353.58-347.94,353.58h-599.18s-336.64-5.44-336.64,325.36v546.95s-51.12,330.99,610.47,330.99h0ZM1588.97,2289.51c-59.97.05-108.63-48.52-108.68-108.49v-.2c-.06-59.97,48.51-108.63,108.48-108.69h.21c59.97-.05,108.63,48.52,108.68,108.49v.2c.05,59.97-48.52,108.63-108.49,108.68h-.2Z"/></svg>
