<svg id="Layer_1" xmlns="http://www.w3.org/2000/svg" viewBox="0 0 2500 1991.52" class="fg">
  <path d="m519.26,0C376.61,0,271.06,124.85,275.79,260.25c4.54,130.08-1.36,298.56-43.77,435.95-42.56,137.78-114.5,225.09-232.02,236.29v126.52c117.52,11.23,189.45,98.5,232.01,236.29,42.42,137.39,48.31,305.87,43.77,435.95-4.73,135.38,100.83,260.25,243.5,260.25h1461.66c142.65,0,248.18-124.85,243.45-260.25-4.54-130.08,1.36-298.56,43.77-435.95,42.56-137.8,114.32-225.1,231.85-236.29v-126.52c-117.52-11.23-189.28-98.5-231.85-236.29-42.42-137.37-48.31-305.87-43.77-435.95C2229.11,124.87,2123.58,0,1980.93,0H519.24h.02Zm1175.66,1225.91c0,186.44-139.07,299.51-369.85,299.51h-392.86c-23.4,0-42.37-18.97-42.37-42.37h0V508.48c0-23.4,18.97-42.37,42.37-42.37h390.62c192.44,0,318.73,104.24,318.73,264.28,0,112.33-84.96,212.89-193.2,230.51v5.86c147.34,16.16,246.56,118.21,246.56,259.17h0Zm-412.69-625.49h-224v316.41h188.67c145.85,0,226.27-58.73,226.27-163.71-.01-98.38-69.16-152.7-190.93-152.7h0Zm-224,441.95v348.69h232.25c151.86,0,232.29-60.93,232.29-175.44s-82.69-173.26-242.06-173.26h-222.48v.02Z"/>
</svg>
