<svg class="fg" id="Layer_1" xmlns="http://www.w3.org/2000/svg" viewBox="0 0 2483.37 2209.62"><path  d="m716.55,0c-67.07.15-132.72,38.22-166.48,96.3L24.93,1008.51c-33.24,58.23-33.24,134.35,0,192.59l525.14,912.22c33.76,58.08,99.41,96.16,166.48,96.3h1050.27c67.07-.15,132.72-38.22,166.48-96.3l525.14-912.22c33.24-58.23,33.23-134.35,0-192.59L1933.31,96.3C1899.55,38.21,1833.9.14,1766.83,0H716.55Zm9.54,533.66c1.45-.15,2.96-.15,4.4,0h181.15c8.18.27,15.66,4.7,19.81,11.76l307.31,547.62c1.55,2.72,2.54,5.72,2.91,8.83.39-3.1,1.38-6.11,2.93-8.83l306.57-547.62c4.3-7.26,12.1-11.73,20.54-11.76h181.16c16.04.14,28.05,20.34,20.54,34.54l-299.97,536.6,299.97,535.87c8.23,14.28-4.07,35.42-20.54,35.28h-181.16c-8.59-.18-16.43-4.95-20.54-12.49l-306.57-547.63c-1.55-2.71-2.54-5.72-2.92-8.82-.38,3.11-1.37,6.11-2.92,8.83l-307.32,547.62c-3.97,7.32-11.47,12.06-19.79,12.49h-181.17c-16.46.15-28.76-21-20.54-35.28l299.97-535.87-299.97-536.6c-7.19-12.96,1.58-31.78,16.13-34.54h0Z"/></svg>
