<svg version="1.2" xmlns="http://www.w3.org/2000/svg" viewBox="0 0 512 512" class="fg"> 
	<path class="s0" d="m162.98 174.94v114.95h11.34 11.34l1.07 22.98 1.07 23.15 10.89-0.46 10.88-0.46 0.3-9.97c0.16-5.51 0.31-20.84 0.46-34.17l0.16-24.22 22.68 0.46 22.53 0.46-0.46-22.68-0.62-22.53h12.42 12.26l-0.15 6.44c-0.16 16.24-1.08 15.02 11.03 15.02h10.58l0.45 11.8 0.46 11.95 22.69-0.46 22.53-0.46 0.15 23.76c0.15 21.76 0.61 39.85 1.22 43.83 0 0.92 4.91 1.53 10.73 1.53h10.58l1.07-22.99 1.23-22.98h11.18 11.35v-114.95-114.94h-11.5-11.49v11.49 11.5h-11.5-11.49v11.49 11.5h-11.5-11.49v11.49 11.5h-46.74-46.75v-11.5-11.49h-11.49-11.5v-11.5-11.49h-11.49-11.49v-11.5-11.49h-11.5-11.49zm68.96 0v22.99h-22.99-22.98v-22.99-22.99h22.98 22.99zm139.47 0v22.99h-22.99-22.99v-22.99-22.99h22.99 22.99z"/>
	<path class="s0" d="m243.74 291.11c-7.2 0.31-11.49 1.07-11.03 1.99 0.61 0.77 0.46 11.04-0.15 22.84l-1.08 21.46h-10.57-10.58l0.46 11.03 0.46 11.19 9.2 0.15c5.06 0.15 9.65 0.31 10.42 0.46 0.61 0.15 1.07 5.36 1.07 11.65v11.49h-11.64-11.5l0.15 9.5c0.16 5.37 0.16 10.58 0.16 11.5-0.16 1.38-3.53 1.99-11.65 1.99h-11.49v-11.65-11.49l-10.27 0.15c-5.83 0.16-16.09 0.16-22.99 0.16l-12.72-0.16v-11.49-11.5h11.49 11.5v-11.49-11.49h-11.5-11.49v11.49 11.49h-11.5-11.49v11.5 11.49h11.49 11.5v11.5 11.49h11.49 11.5v11.5 11.49h35.25 35.25v11.49 11.5h10.72 10.73v-22.99-22.99h23.76 23.75v22.99 22.99h10.73 10.73v-11.5-11.49h23.75 23.76v-11.49-11.35l-11.8-0.46-11.96-0.46 0.46-11.18 0.61-11.04h-11.64-11.65v-11.49c0-12.88-1.53-11.65 15.02-11.96l6.44-0.15v-11.19-11.18h-10.73-10.73l-0.31-12.73c-0.15-6.89-0.46-15.01-0.61-17.93-0.15-2.91-0.46-7.81-0.46-10.72l-0.15-5.37h-34.18c-18.7-0.15-39.39 0.15-45.98 0.46z"/>
	<path class="s0" d="m187.5 371.11v10.73h10.73 10.72v-10.73-10.73h-10.72-10.73z"/>
	<path class="s0" d="m348.42 371.11v10.73h10.73 10.72v-10.73-10.73h-10.72-10.73z"/>
	<path class="s0" d="m371.41 394.25v10.58h10.72 10.73v-10.58-10.57h-10.73-10.72z"/>
	<g id="Layer 1">
	</g>
</svg>
