<svg class="fg" id="Layer_1" xmlns="http://www.w3.org/2000/svg" viewBox="0 0 2202.47 2475.39" >
  <rect x="1739.8" y="1176.32" width="116.11" height="116.11"/>
  <path d="M2202.36,727.76h0c-.02-41.62-8.92-78.4-26.92-109.96-17.68-31.05-44.16-57.06-79.69-77.63-293.21-169.07-586.7-337.62-879.82-506.85-79.02-45.62-155.64-43.95-234.08,2.33-116.71,68.82-701.01,403.58-875.13,504.43C35.02,581.59.13,645.12.11,727.68c-.11,340,0,680.01-.11,1020.01,0,40.71,8.54,76.78,25.75,107.86,17.69,31.98,44.54,58.71,80.88,79.75,174.12,100.85,758.51,435.59,875.19,504.43,78.47,46.3,155.09,47.96,234.14,2.33,293.12-169.25,586.63-337.8,879.89-506.86,36.34-21.03,63.19-47.78,80.88-79.73,17.18-31.09,25.74-67.16,25.74-107.87,0,0,0-679.82-.11-1019.84ZM1116.09,2056.3l-9.12.05c-303.81,0-568.97-165.49-710.24-411.26-68.97-119.98-108.43-259.08-108.43-407.41,0-452.12,366.52-818.66,818.66-818.66h0c302.85,0,567.26,164.48,708.89,408.96l-1.38-2.35-356.33,205.16c-70.2-118.86-198.89-199.08-346.53-200.74l-4.65-.03c-225.13,0-407.65,182.52-407.65,407.65-.07,70.96,18.46,140.7,53.76,202.25,70.27,122.67,202.36,205.41,353.89,205.41s285.32-83.79,355.22-207.77l-1.7,2.97,355.79,206.11c-140.08,242.41-400.87,406.37-700.2,409.64ZM2030.08,1176.33h-116.11v116.1h116.11v58.06h-116.11v116.11h-58.06v-116.11h-116.11v116.11h-58.06v-116.11h-116.1v-58.06h116.1v-116.1h-116.1v-58.06h116.1v-116.11h58.06v116.11h116.11v-116.11h58.06v116.11h116.11v58.06Z"/>
</svg>
