<svg class="fg" id="Layer_1" xmlns="http://www.w3.org/2000/svg" viewBox="0 0 2218.37 2493.26" >
  <path d="M2218.26,733.02h0c-.02-41.92-8.98-78.97-27.12-110.76-17.81-31.26-44.48-57.47-80.26-78.19-295.33-170.29-590.94-340.05-886.17-510.51-79.59-45.95-156.76-44.28-235.77,2.33-117.55,69.32-706.08,406.5-881.45,508.08C35.27,585.79.13,649.77.11,732.94c-.11,342.46,0,684.91-.11,1027.37.02,41,8.6,77.33,25.93,108.64,17.82,32.21,44.87,59.13,81.47,80.32,175.38,101.58,763.99,438.73,881.51,508.07,79.04,46.64,156.21,48.3,235.83,2.33,295.24-170.47,590.87-340.23,886.24-510.51,36.6-21.18,63.65-48.12,81.47-80.3,17.31-31.32,25.91-67.64,25.93-108.65,0,0,0-684.73-.11-1027.2ZM1109.19,1983.31c-273.38,0-512-148.92-639.12-370.08-62.06-107.97-97.57-233.14-97.57-366.61,0-406.85,329.82-736.68,736.69-736.68,272.52,0,510.46,148.01,637.9,368l-320.64,184.63c-63.54-109.26-181.79-182.79-317.27-182.79-202.59,0-366.84,164.24-366.84,366.83-.07,63.85,16.62,126.61,48.38,182,63.23,110.39,182.1,184.84,318.46,184.84s256.75-75.4,319.66-186.97h0s320.16,185.49,320.16,185.49c-126.94,221.81-365.93,371.33-639.81,371.33ZM1850.97,1288.01h-84.38v84.4h-84.38v-84.4h-84.38v-84.38h84.38v-84.38h84.38v84.38h84.38v84.38ZM2158.88,1288.01h-84.38v84.4h-84.4v-84.4h-84.38v-84.38h84.38v-84.38h84.4v84.38h84.38v84.38Z"/>
</svg>
