<svg version="1.2" xmlns="http://www.w3.org/2000/svg" viewBox="0 0 2500 2458" >
	<style>
		.s0 { fill: #1e3101 } 
	</style>
	<g>
		<path fill-rule="evenodd" class="s0" d="m442.71 10.42h1614.58c244.5 0 442.71 198.2 442.71 442.7v1552.09c0 244.5-198.21 442.71-442.71 442.71h-1614.58c-244.5 0-442.71-198.21-442.71-442.71v-1552.09c0-244.5 198.21-442.7 442.71-442.7zm109.77 1722.73h204.61c2.05 0.29 4.14 0.1 6.11-0.56 1.96-0.65 3.75-1.75 5.21-3.22 1.46-1.46 2.57-3.25 3.22-5.21 0.65-1.97 0.84-4.06 0.55-6.11v-330.38q30.18 0.01 45.28 0.84 15.09 0.84 51.99 0.84 29.94 0.39 59.79-1.9 29.85-2.29 59.38-7.25 29.52-4.96 58.49-12.54 28.96-7.58 57.13-17.72c16.76-5.98 33.04-13.22 48.7-21.66 15.67-8.45 30.66-18.07 44.86-28.8 14.2-10.72 27.57-22.51 39.98-35.26 12.41-12.75 23.83-26.42 34.17-40.91q62.05-87.19 62.05-221.37 0.06-17.23-1.39-34.4-1.46-17.16-4.41-34.14-2.95-16.97-7.38-33.62-4.43-16.65-10.3-32.84-6.2-16.63-14.16-32.49-7.96-15.86-17.58-30.77-9.63-14.91-20.8-28.7-11.18-13.78-23.77-26.28c-9.9-9.61-20.32-18.65-31.22-27.1-10.9-8.45-22.26-16.29-34.03-23.48-11.77-7.18-23.93-13.71-36.42-19.55-12.49-5.84-25.3-10.98-38.36-15.4q-87.23-31.87-214.67-31.87-46.97 0.02-94.76 0.85-21.28 0.36-42.56 0.75-21.27 0.4-42.55 0.82-21.28 0.42-42.56 0.86-21.27 0.45-42.55 0.92-36.92 0.84-63.73 0.84-10.06 0.01-10.06 11.74v1071.66c0 8.97 3.91 13.42 11.74 13.41zm262.47-898.07q31.03-0.83 71.28-0.83 15.64-0.5 31.24 0.58 15.61 1.08 31.03 3.72 15.42 2.64 30.5 6.81 15.07 4.18 29.66 9.85c7.41 2.95 14.58 6.46 21.45 10.5 6.87 4.04 13.43 8.6 19.61 13.64 6.17 5.05 11.96 10.55 17.3 16.48 5.33 5.92 10.21 12.24 14.58 18.91q6.26 10.37 10.98 21.52 4.71 11.15 7.8 22.86 3.08 11.7 4.48 23.73 1.39 12.03 1.06 24.13-0.01 68.78-32.71 107.33c-5.62 6.53-11.7 12.64-18.19 18.3-6.48 5.66-13.37 10.85-20.6 15.52-7.23 4.68-14.78 8.84-22.6 12.44-7.82 3.6-15.89 6.64-24.14 9.09q-14.56 4.38-29.41 7.63-14.85 3.26-29.9 5.36-15.06 2.11-30.23 3.05-15.17 0.95-30.37 0.73h-55.34q-18.47 0.01-40.25-1.68v-347.16q11.71-1.64 42.77-2.51zm1137.04 721.15c-2.78-1.67-6.18-1.97-9.22-0.83q-6.88 0.85-13.79 1.49-6.91 0.64-13.83 1.05-6.92 0.42-13.85 0.63-6.94 0.2-13.87 0.18-52.02 0.01-71.27-24.32-19.3-24.3-19.3-81.34v-358.89h159.33c1.31-0.24 2.57-0.72 3.7-1.44 1.13-0.71 2.11-1.64 2.88-2.72 0.78-1.09 1.34-2.32 1.64-3.62 0.31-1.3 0.37-2.64 0.16-3.96v-169.39q0-13.42-10.06-13.41h-155.97q1.66-62.02 3.36-128.3 1.65-66.21 5.03-104.81c0-5.58-0.31-8.48-2.52-9.6-2.01-1.18-4.85-1.18-9.22-0.46l-199.58 25.16c-3.31 1.09-6.21 3.13-8.38 5.86-2.22 2.74-3.93 5.86-5.03 9.22q-3.37 23.47-7.54 61.21-4.2 37.73-6.71 75.47-2.55 37.73-4.2 66.24h-98.95q-15.09 0.01-15.09 13.41v166.03q-0.01 15.1 13.42 15.1h98.94v415.91q-0.01 125.81 62.05 182.81 62.03 57.01 171.07 57.02c26.98 0.27 53.93-1.98 80.5-6.71q8.5-1.6 16.95-3.45 8.44-1.85 16.84-3.95 8.39-2.1 16.71-4.44 8.33-2.35 16.58-4.93 13.42-3.33 13.42-21.8v-137.53q-0.02-8.37-4.2-10.89z"/>
	</g>
</svg>
