<svg class="fg" id="Layer_1" xmlns="http://www.w3.org/2000/svg" viewBox="0 0 2054.75 2310.86"><path  d="M2054.71,1631.43v-952h-.76c.79-35.83-7.84-71.24-25.03-102.68-17.82-30.4-43.5-55.43-74.34-72.45-273.44-157.88-546.97-315.54-820.6-472.98-73.68-42.6-145.1-41.09-218.3,2.17-108.82,63.95-653.78,376.53-816.16,470.71C32.64,542.93.14,602.25.14,679.33v952.19c-.69,35.07,7.6,69.74,24.09,100.7,17.82,31.32,43.98,57.09,75.57,74.44,162.38,94.46,707.43,406.66,816.26,470.9,73.21,43.26,144.62,44.78,218.4,2.17,273.38-157.94,546.91-315.66,820.6-473.17,31.59-17.35,57.75-43.11,75.57-74.44,16.49-30.96,24.78-65.63,24.09-100.7ZM726.66,1327.07c2.96,6.17,6.11,12.22,9.45,18.14,66.42,120.39,193.12,195.07,330.62,194.88h0c127.04.07,245.56-63.9,315.22-170.13l323.91,195.82c-66.25,103.7-156.85,189.63-263.9,250.3-362.69,205.57-823.35,78.19-1028.92-284.5-2.93-5.95-6.23-11.9-9.45-17.95-169.5-324.61-81.53-724.06,208.66-947.44,330.31-254.26,804.21-192.61,1058.47,137.7,4.53,6.14,9.35,12.37,13.98,18.89,8.82,12.22,17.26,24.81,25.32,37.79l-331.28,190.82c-2.08-3.21-4.35-6.33-6.61-9.45-5.01-6.52-9.45-12.85-14.45-18.89-110.64-134.58-299.05-175.9-455.86-99.98-187.54,90.81-265.96,316.45-175.15,503.99Z"/><path  d="M2054.15,1631.52h0s0-634.7-.19-952.09c.8-35.84-7.86-71.26-25.13-102.68-17.78-30.39-43.43-55.42-74.25-72.45l-284.03,199.39c.05.07.11.14.17.21,4.53,6.14,9.35,12.37,13.98,18.89,8.82,12.22,17.26,24.81,25.32,37.79l-331.28,190.82c-2.08-3.21-4.35-6.33-6.61-9.45-4.96-6.45-9.36-12.72-14.31-18.71l-330.77,232.2,989.31,597.95c5.07-6.72,9.64-13.79,13.7-21.16,16.51-30.95,24.8-65.62,24.09-100.7Z"/><path  d="M1378.74,951.39c-2.08-3.21-4.35-6.33-6.61-9.45-5.01-6.52-9.45-12.85-14.45-18.89-110.64-134.58-299.05-175.9-455.86-99.98-187.54,90.81-265.96,316.45-175.15,503.99.02.04.04.08.06.12l734.36-423.23-82.34,47.43Z"/><path  d="M612.25,566.19c330.31-254.26,804.21-192.61,1058.47,137.7,4.53,6.14,9.35,12.37,13.98,18.89,8.8,12.2,17.23,24.77,25.28,37.72l318.85-183.76c-17.78-30.39-43.43-55.42-74.25-72.45-273.69-157.5-547.22-315.22-820.6-473.17-73.68-42.6-145.19-41.09-218.21,2.17C806.86,97.44,261.9,410.02,99.42,504.2,32.64,542.93.05,602.25.05,679.33v952.28c-.74,35.02,7.49,69.65,23.9,100.6l379.56-218.75c-169.39-324.58-81.4-723.94,208.74-947.27Z"/></svg>
