<?xml version="1.0" encoding="UTF-8"?><svg id="Layer_2" xmlns="http://www.w3.org/2000/svg" viewBox="0 0 1000 1000"><defs><style>.cls-1{fill:#fff;}.cls-2{fill:#ee0000;}</style></defs><g id="Layer_1-2"><circle class="cls-2" cx="500" cy="500" r="500"/><path d="m678.56,694.12c-9.14-61.15-33.1-128.26-8.62-220.63,14.85-56,41.41-98.38,62.35-126.13,45.52-27.75,91.02-55.5,136.54-83.25-66.3-6.26-132.6-12.52-198.89-18.79-16.63-10.84-137.31-86.94-263.86-41.49-133.58,47.98-220.94,212.44-183.98,390.12-51.02,53.24-102.04,106.48-153.07,159.72,86.96,147.42,247.41,246.33,430.96,246.33,45.38,0,89.35-6.05,131.14-17.38,35.79-79.96,63.42-181.47,47.42-288.51Z"/><path class="cls-1" d="m732.3,347.35c-20.86,1.39-271.12,21.23-331.63,178.57-6.64,17.29-11.66,37.94-12.75,62.36,20.77,3.17,50.79,10.01,83.62,26.22,73.84,36.45,110.6,94.95,124,116.92,61.49,100.76,47.29,205.56,41.91,236.57,32.6-77.54,56.14-173.24,41.12-273.87-9.14-61.15-33.1-128.26-8.62-220.63,14.85-56,41.42-98.38,62.36-126.13Z"/><circle class="cls-1" cx="488.32" cy="311.43" r="33.61"/></g></svg>