<svg id="Layer_2" data-name="Layer 2" xmlns="http://www.w3.org/2000/svg" viewBox="0 0 63.45 16.81">
	<g id="Layer_2-2" data-name="Layer 2">
		<g>
			<path
				d="m0,11.62c0,.05.02.11.02.16,0,.26,0,.52,0,.78,0,.04-.01.08-.02.12,0-.35,0-.71,0-1.06Z"
			/>
			<path
				d="m11.67,10.53c.6-.55,1.23-1.14,1.87-1.73.13-.13.26-.26.38-.4.04-.05.04-.13.05-.19,0-.56,0-1.12,0-1.67.02-.61.05-1.23.08-1.84.02-.48.04-.96.08-1.43.08-.95.16-1.9.25-2.85.02-.2.16-.34.36-.37.05,0,.1,0,.15,0,2.25,0,4.5,0,6.74,0,.88,0,1.76.05,2.62.28,1.36.37,2.47,1.09,3.22,2.3.36.59.56,1.23.62,1.92.03.31.07.62.04.92-.05.59-.12,1.18-.3,1.75-.25.8-.76,1.43-1.39,1.97-.4.34-.84.62-1.31.86-.16.08-.19.2-.1.35.49.76.98,1.52,1.48,2.29.02-.04.05-.07.06-.1.86-1.92,1.66-3.87,2.41-5.84.76-2.01,1.53-4.01,2.29-6.02.04-.11.09-.22.13-.32.07-.18.19-.28.38-.28.13,0,.26,0,.39,0,1.05,0,2.11,0,3.16,0,.04,0,.08,0,.12,0,.2,0,.32.1.39.28.23.62.47,1.24.7,1.86.72,1.9,1.44,3.81,2.16,5.71.25.64.51,1.28.77,1.92.01.03.03.07.07.1.01-.27.03-.55.04-.82.02-.59.04-1.19.05-1.78.01-.78.04-1.55.02-2.33-.02-.98-.07-1.96-.12-2.95-.03-.56-.09-1.13-.14-1.69-.02-.23.1-.38.33-.38,1.16,0,2.33,0,3.49,0,.24,0,.42.11.56.3.22.29.44.59.66.89,1.55,2.1,3.1,4.2,4.65,6.29.2.27.42.54.66.8,0-.05,0-.09,0-.14-.08-1.51-.04-3.03-.04-4.54,0-.78.05-1.55.08-2.33,0-.23,0-.47.01-.7,0-.16.04-.31.06-.47,0-.08.06-.11.14-.12.03,0,.05,0,.08,0,1.16,0,2.31-.02,3.47-.03.11,0,.23,0,.34.02.24.03.41.16.45.4.06.32.1.64.13.96.06.6.12,1.19.17,1.79.05.71.11,1.41.13,2.12.04,1.32.06,2.63.07,3.95,0,.65-.03,1.31-.05,1.96,0,.06.01.13.05.16.39.38.76.78,1.24,1.05.49.28,1.02.36,1.58.26.68-.12,1.1-.55,1.28-1.21.07-.26.12-.54.12-.81,0-3.28,0-6.57,0-9.85,0-.06,0-.11,0-.17.05-.42.26-.6.69-.6,1.04,0,2.08,0,3.12,0,.38,0,.61.24.61.61,0,.85-.01,1.71,0,2.56,0,.38-.21.63-.63.63-.82,0-1.65,0-2.47,0-.06,0-.11,0-.17,0-.04,0-.1.04-.1.06,0,.04.02.11.05.13.08.06.17.11.26.17.89.53,1.77,1.07,2.66,1.59.29.17.41.41.41.74,0,.97,0,1.94,0,2.92,0,.58,0,1.15-.03,1.73-.06.96-.25,1.89-.73,2.73-.58,1.02-1.41,1.75-2.49,2.22-.66.28-1.34.44-2.06.48-.61.03-1.21.03-1.81-.05-.61-.08-1.2-.24-1.77-.48-.03-.01-.07-.03-.11-.04-.01,0-.03,0-.05-.01,0,.03-.01.06-.02.09-.03.29-.26.51-.56.51-1.03,0-2.06,0-3.09,0-.15,0-.27-.05-.37-.17-.42-.5-.85-.98-1.24-1.49-1-1.3-1.98-2.62-2.97-3.93-.58-.77-1.15-1.55-1.72-2.32-.11-.15-.27-.18-.42-.08-.09.06-.12.16-.12.27-.02.49-.02.99-.05,1.48-.05.82-.11,1.65-.17,2.47-.04.48-.07.96-.12,1.44-.06.56-.12,1.12-.2,1.67-.07.47-.39.72-.86.72-1.3,0-2.61,0-3.91,0-.42,0-.74-.19-.91-.59-.39-.89-.78-1.78-1.16-2.67-.07-.17-.19-.26-.37-.25-.27.01-.54.03-.81.03-1.08,0-2.16,0-3.24,0-.35,0-.7-.02-1.05-.02-.23,0-.31.05-.38.27-.24.67-.46,1.34-.71,2-.13.35-.27.7-.41,1.04-.09.2-.27.28-.48.29-.62.02-1.24.04-1.86.04-.63,0-1.25-.04-1.88-.04-.5,0-.86-.21-1.14-.61-.86-1.21-1.74-2.42-2.61-3.63-.37-.51-.73-1.02-1.09-1.54-.06-.08-.12-.12-.23-.12-.5,0-1,0-1.51,0-.26,0-.28.01-.27.26.03,1.06.06,2.12.12,3.17.03.63.11,1.26.17,1.89.02.26-.15.47-.41.49-.27.01-.53.03-.8.03-1.58,0-3.15,0-4.73,0-.27,0-.5-.07-.69-.29-.3-.34-.63-.65-.95-.97-.12-.13-.14-.13-.29-.03-.6.38-1.23.69-1.9.92-.49.17-1,.28-1.52.35-.63.08-1.26.11-1.9.07-1.27-.09-2.47-.39-3.55-1.09-.79-.51-1.38-1.19-1.71-2.08-.18-.48-.2-.98-.21-1.49,0-.65.08-1.28.34-1.88.34-.76.88-1.34,1.55-1.82.41-.29.86-.53,1.32-.73.03-.02.07-.03.1-.05.13-.07.15-.13.07-.25-.19-.33-.4-.66-.56-1.01-.36-.81-.5-1.67-.38-2.55.21-1.51,1.08-2.54,2.42-3.22C5.64.26,6.38.09,7.14.06c.95-.04,1.88.05,2.77.41.9.37,1.66.92,2.17,1.77.29.48.44,1,.49,1.56.08.82-.03,1.62-.43,2.35-.3.54-.7.99-1.18,1.39-.35.29-.72.53-1.12.74-.26.14-.27.19-.07.4.48.49.96.98,1.44,1.47.13.13.28.24.45.38Zm8.4-3.03c.39,0,.79,0,1.18,0,.37,0,.73-.03,1.09-.13.6-.17,1.04-.52,1.26-1.11.1-.26.08-.53.08-.8,0-.68-.39-1.21-1.02-1.46-.39-.15-.8-.21-1.21-.22-.88-.01-1.77,0-2.65,0-.21,0-.34.12-.35.33-.03,1.03-.05,2.05-.07,3.08,0,.23.09.31.32.31.46,0,.91,0,1.37,0Zm13.54,2.26h0c.45,0,.89,0,1.34,0,.19,0,.22-.05.16-.23-.46-1.3-.92-2.59-1.39-3.89-.03-.07-.08-.13-.13-.2-.04.06-.1.12-.12.19-.46,1.29-.92,2.58-1.38,3.88-.06.17,0,.24.18.24.45,0,.9,0,1.35,0Zm-28.43,2.15c-.04.67.47,1.24,1.12,1.39.8.19,1.52-.04,2.21-.41.09-.05.09-.13,0-.23-.09-.1-.18-.2-.28-.3-.65-.67-1.3-1.35-1.95-2.02-.12-.13-.14-.13-.29-.03-.52.38-.85.87-.84,1.59Zm3.69-7.41c0-.3-.03-.52-.13-.73-.21-.44-.56-.64-1.04-.64-.47,0-.81.23-1.01.65-.12.26-.16.54-.15.83.03.7.38,1.25.79,1.79.05.07.11.07.18.03.1-.06.21-.11.3-.17.66-.43,1.04-1.02,1.05-1.75Z"
			/>
		</g>
	</g>
</svg>
