<?xml version="1.0" encoding="UTF-8"?><svg id="Layer_1" xmlns="http://www.w3.org/2000/svg" viewBox="0 0 120 24"><defs><style>.cls-1{fill:#ff6363;}</style></defs><path class="cls-1" d="m40.39,7.61c.48.62.83,1.33,1.05,2.09.23.79.35,1.6.35,2.43.02,1.05-.18,2.1-.59,3.07-.36.81-.88,1.54-1.54,2.14-.62.55-1.34.98-2.13,1.25-.76.26-1.55.4-2.35.41-.51,0-1.02-.05-1.51-.17-.4-.11-.76-.22-1.08-.33v5.51h-3.86l.02-18.14h3.72c.04.23.06.46.08.69.02.23.04.46.05.69.42-.53.97-.95,1.59-1.21.64-.28,1.32-.42,2.01-.42,1.63-.05,3.18.7,4.18,1.99Zm40.38,0c.48.62.83,1.33,1.05,2.09.23.79.35,1.6.35,2.43.02,1.05-.18,2.1-.59,3.07-.36.81-.88,1.54-1.54,2.14-.62.55-1.34.98-2.13,1.25-.76.26-1.55.4-2.35.41-.51,0-1.02-.05-1.51-.17-.4-.11-.76-.22-1.08-.33v5.51h-3.86V5.86h3.73c.04.23.06.46.08.69.02.23.04.46.05.69.42-.53.97-.95,1.59-1.21.64-.28,1.32-.42,2.01-.42,1.63-.05,3.19.69,4.19,1.99ZM5.96,5.42c.96-.01,1.91.12,2.83.38.8.24,1.55.6,2.24,1.07l-1.64,2.58c-.45-.29-.92-.53-1.42-.73-.57-.22-1.18-.33-1.79-.32-.59,0-1.03.09-1.29.26-.25.14-.41.4-.4.69,0,.42.28.72.84.92.56.2,1.31.42,2.26.68,1.29.36,2.23.86,2.82,1.49.59.63.88,1.47.88,2.52.02.64-.15,1.27-.48,1.82-.32.51-.75.94-1.27,1.26-.56.35-1.17.6-1.81.75-.68.16-1.37.24-2.06.24-1.09,0-2.17-.15-3.21-.46-.92-.26-1.77-.74-2.45-1.41l1.92-2.5c.48.42,1.03.74,1.63.95.62.24,1.29.37,1.95.38.49.01.97-.06,1.43-.22.36-.12.59-.47.57-.84,0-.16-.04-.31-.12-.45-.11-.16-.27-.29-.44-.38-.29-.15-.59-.27-.9-.37-.39-.13-.88-.27-1.47-.43-.49-.13-.98-.3-1.44-.51-.46-.2-.88-.46-1.27-.77-.37-.31-.67-.68-.89-1.11-.47-1-.45-2.16.07-3.13.28-.49.66-.92,1.12-1.25.51-.37,1.09-.65,1.7-.81.69-.19,1.4-.29,2.12-.28Zm94.81.02c.94-.01,1.88.17,2.75.53.8.33,1.53.83,2.13,1.45.6.62,1.07,1.35,1.39,2.16.67,1.7.67,3.59,0,5.29-.65,1.63-1.92,2.94-3.53,3.62-.87.37-1.81.56-2.75.54-.95.01-1.89-.17-2.77-.54-.8-.34-1.53-.84-2.14-1.46-.6-.62-1.07-1.35-1.39-2.16-.34-.84-.51-1.74-.5-2.64,0-.91.17-1.81.5-2.65.32-.8.79-1.53,1.39-2.16.61-.62,1.34-1.12,2.14-1.45.88-.36,1.82-.54,2.76-.53Zm-50.71,0c.93-.02,1.85.16,2.7.54.76.35,1.42.86,1.95,1.5.55.68.96,1.46,1.2,2.31.28.96.41,1.95.4,2.94v.65h-9.01c.02.69.32,1.29.9,1.81.59.52,1.39.77,2.41.77,1.01,0,1.83-.15,2.45-.45.48-.21.94-.47,1.38-.77l1.59,2.47c-.14.09-.36.24-.65.45-.35.24-.73.45-1.12.61-.53.22-1.07.4-1.63.53-.71.16-1.43.24-2.16.23-.99.01-1.98-.16-2.91-.51-.82-.31-1.57-.78-2.2-1.4-.61-.61-1.08-1.34-1.37-2.15-.32-.89-.48-1.83-.47-2.78,0-.87.15-1.74.44-2.56.28-.8.72-1.53,1.28-2.16.58-.63,1.27-1.13,2.05-1.48.87-.38,1.8-.57,2.75-.56Zm-32.61.43v7.32c0,.72.18,1.29.53,1.71.35.42.87.62,1.55.62.36,0,.72-.07,1.05-.23.61-.3,1.07-.85,1.27-1.51.11-.34.17-.7.17-1.06v-6.86h3.86v12.72h-3.73l-.11-1.35c-.45.52-1.01.93-1.63,1.21-.66.31-1.39.48-2.12.47-1.46,0-2.61-.43-3.45-1.3-.85-.87-1.27-2.15-1.27-3.85v-7.9h3.89Zm48.47-.24c.29,0,.59.02.88.05.24.04.48.1.71.19l-.62,3.44c-.45-.14-.93-.2-1.4-.19-.92,0-1.66.28-2.23.83-.57.55-.85,1.33-.85,2.35v6.29h-3.89V5.86h3.72l.13,1.6c.38-.48.83-.91,1.34-1.25.57-.4,1.3-.6,2.2-.6Zm25.94,0c.29,0,.59.02.88.05.24.04.48.1.72.19l-.62,3.44c-.45-.14-.93-.2-1.4-.19-.92,0-1.66.28-2.22.83-.57.55-.85,1.33-.85,2.35v6.29h-3.89V5.86h3.72l.13,1.6c.38-.48.83-.91,1.34-1.25.57-.4,1.3-.6,2.2-.6ZM116.01,0c.7,0,1.4.1,2.08.3.7.2,1.36.55,1.91,1.03-.27.42-.54.83-.82,1.23-.28.41-.55.82-.82,1.23-.27-.2-.57-.36-.89-.46-.32-.11-.66-.17-1-.17-.49-.02-.96.17-1.29.52-.32.34-.48.83-.48,1.46v.71h2.99v3.06h-2.99v9.66h-3.86v-9.65s-2.05,0-2.05,0v-3.06h2.05v-.65c-.02-.8.13-1.6.44-2.33.27-.62.67-1.17,1.17-1.61.49-.42,1.05-.75,1.66-.95.61-.21,1.25-.31,1.9-.31Zm-40.35,8.94c-.4,0-.79.08-1.15.24-.32.15-.61.38-.84.65-.23.27-.4.59-.51.92-.11.34-.17.7-.17,1.06v3.4c.5.34,1.25.51,2.23.51s1.7-.32,2.25-.96c.55-.64.82-1.5.82-2.56,0-.41-.05-.82-.15-1.22-.09-.37-.24-.73-.46-1.05-.21-.3-.49-.55-.81-.72-.38-.19-.8-.29-1.23-.27Zm-40.37,0c-.4,0-.79.08-1.15.24-.32.15-.61.38-.84.65-.23.27-.4.59-.51.92-.11.34-.17.7-.17,1.06v3.4c.5.34,1.25.51,2.23.51s1.7-.32,2.25-.96c.55-.64.82-1.5.82-2.56,0-.41-.05-.82-.15-1.22-.09-.37-.24-.73-.46-1.05-.21-.3-.49-.55-.81-.72-.38-.19-.8-.29-1.23-.27Zm65.48-.12c-.45,0-.9.09-1.31.28-.37.18-.7.44-.96.76-.26.32-.45.69-.58,1.09-.27.82-.27,1.7,0,2.52.13.4.33.77.58,1.1.25.33.58.59.96.77.41.19.86.29,1.31.28h0c.45.01.89-.08,1.29-.28.37-.18.7-.45.96-.77.26-.33.46-.7.58-1.1.25-.82.25-1.7,0-2.52-.12-.4-.32-.77-.58-1.09-.26-.32-.59-.58-.96-.76-.4-.19-.85-.29-1.29-.28Zm-50.74-.36c-.41,0-.81.07-1.19.23-.32.14-.61.34-.85.58-.22.22-.39.48-.51.77-.11.26-.17.54-.17.83h5.34c0-.28-.06-.56-.17-.83-.11-.29-.28-.55-.49-.77-.23-.25-.5-.44-.81-.58-.36-.16-.76-.24-1.16-.23Z"/></svg>