<?xml version="1.0" encoding="UTF-8"?>
<svg id="Layer_2" data-name="Layer 2" xmlns="http://www.w3.org/2000/svg" viewBox="0 0 25.29 50">
  <g id="Layer_2-2" data-name="Layer 2">
    <g>
      <path d="m25.29,35.32v-.53c-.01-.29-.11-1.58-.23-2.86-.24-2.64-.31-11.77-.11-15.31l.13-2.29h-.9c-.5,0-1.59.05-2.43.1l-1.53.1.09.87c.61,5.57.34,12.28-.57,14.48-.76,1.81-3.56,2.91-7.47,2.93-2.24,0-3.97-.3-5.31-.96-1.82-.89-2.18-1.82-2.37-6.12-.07-1.62-.14-4.84-.14-7.15v-4.2s-2.22.08-2.22.08c-1.22.04-2.22.08-2.23.1,0,.01.07,1.9.18,4.21.11,2.3.21,5.83.21,7.83.02,5.02.2,5.68,2.13,7.44,1.01.92,2.05,1.43,4.04,1.97,2.11.57,4.64.57,7.13,0,2.39-.55,3.92-1.36,5.58-2.96l1.28-1.23v2.42c0,1.33.05,2.42.12,2.42.06,0,1.13-.3,2.36-.67h0s2.25-.67,2.25-.67Z"/>
      <path d="m6.06,47.6l1.2,1.2,1.2,1.2,2.12-2.11,2.12-2.11,1.97,2.04c1.09,1.12,2.05,2.04,2.15,2.04s.68-.51,1.3-1.13l1.12-1.13-2.09-2.09-2.09-2.09,1.98-1.98,1.98-1.98-1.2-1.2-1.2-1.2-1.94,1.93-1.94,1.93-1.98-1.97-1.98-1.97-1.2,1.2-1.2,1.2,1.97,1.98,1.97,1.98-2.13,2.13-2.13,2.13Z"/>
      <path d="m6.1,26.51c0,.2,2.04,2.25,2.24,2.25.09,0,1.08-.92,2.21-2.05l2.06-2.05,2.09,2.09,2.09,2.09,1.2-1.2,1.2-1.2-2.09-2.09-2.09-2.09,1.9-1.9c1.04-1.05,1.9-1.97,1.9-2.05,0-.2-2.04-2.25-2.24-2.25-.09,0-1.01.85-2.06,1.9l-1.9,1.9-1.98-1.97-1.98-1.97-1.2,1.2-1.2,1.2,1.97,1.98,1.97,1.98-2.05,2.06c-1.13,1.13-2.05,2.12-2.05,2.21Z"/>
      <path d="m6.02,10.7l1.12,1.12c.62.62,1.19,1.12,1.28,1.12s1.08-.92,2.21-2.05l2.06-2.05,2.09,2.09,2.09,2.09,1.2-1.2,1.2-1.2-2.09-2.09-2.09-2.09,1.9-1.9c1.04-1.05,1.9-1.97,1.9-2.05s-.5-.66-1.12-1.28l-1.12-1.13-1.98,1.98-1.98,1.98-2.02-2.01-2.02-2.01-1.2,1.2-1.2,1.2,2.01,2.02,2.01,2.02-2.13,2.13-2.13,2.13Z"/>
    </g>
  </g>
</svg>