<svg version="1.2" xmlns="http://www.w3.org/2000/svg" viewBox="0 0 100 100" >
	<style>
		.s0 { opacity: 1;fill: #fe6363 } 
	</style>
	<g>
		<path fill-rule="evenodd" class="s0" d="m47.65 4.09q4.57-0.47 8.72 1.45 15.73 9.12 31.46 18.24 3.33 2.94 4.36 7.27 0.26 18.9 0 37.8-0.83 6.09-5.95 9.39-15.94 9.09-31.98 17.97-6.2 1.93-11.63-1.59-14.61-8.55-29.34-16.91-4.39-3.2-5.16-8.59-0.26-19.17 0-38.33 1.62-5.68 6.74-8.59 14.28-8.2 28.55-16.39 2.09-1.07 4.23-1.72zm1.06 30.4q-4.78 0.63-8.33 3.96-4.42 6.82 2.25 11.5 6.08 2.25 12.16 4.5 2.47 2.66 0.26 5.55-7.4 2.74-14.14-1.46-1.8 1.93-3.31 4.1 0.91 0.98 2.12 1.59 8.41 3.7 17.18 1.05 3.74-1.23 5.68-4.62 2.6-8.89-6.21-11.77-4.61-1.08-8.98-2.9-0.75-0.61-1.19-1.46-0.72-2.49 1.19-4.09 6.14-2.19 11.76 1.19 1.86-2.01 2.64-4.5-6.14-3.21-13.08-2.64z"/>
	</g>
</svg>
