<?xml version="1.0" encoding="UTF-8"?><svg id="Layer_2" xmlns="http://www.w3.org/2000/svg" viewBox="0 0 2287.81 477.59"><defs><style>.cls-1{fill:#fff;}.cls-2{fill:#ee0000;}</style></defs><g id="Layer_1-2"><circle class="cls-2" cx="1464.53" cy="237.65" r="130.44"/><path d="m1511.11,288.29c-2.38-15.95-8.64-33.46-2.25-57.56,3.87-14.61,10.8-25.67,16.27-32.91,11.87-7.24,23.75-14.48,35.62-21.72-17.3-1.63-34.59-3.27-51.89-4.9-4.34-2.83-35.82-22.68-68.84-10.82-34.85,12.52-57.64,55.42-48,101.78-13.31,13.89-26.62,27.78-39.93,41.67,22.69,38.46,64.55,64.26,112.43,64.26,11.84,0,23.31-1.58,34.21-4.53,9.34-20.86,16.54-47.34,12.37-75.27Z"/><path class="cls-1" d="m1525.13,197.82c-5.44.36-70.73,5.54-86.52,46.59-1.73,4.51-3.04,9.9-3.33,16.27,5.42.83,13.25,2.61,21.81,6.84,19.27,9.51,28.85,24.77,32.35,30.5,16.04,26.29,12.34,53.63,10.93,61.72,8.51-20.23,14.65-45.2,10.73-71.45-2.38-15.95-8.64-33.46-2.25-57.56,3.87-14.61,10.81-25.67,16.27-32.91Z"/><circle class="cls-1" cx="1461.48" cy="188.45" r="8.77"/><path class="cls-1" d="m123.02,140.39c31.82,0,60.93,15.82,77.89,42.34l3.97,6.2,22.39-17-3.48-5.31c-22.23-33.85-60.08-54.07-101.24-54.07C54.98,112.55,0,168.57,0,237.42s53.84,125.32,122.56,125.32c41.16,0,79.01-20.22,101.24-54.07l3.4-5.18-22.22-17.76-4.06,6.36c-17.15,26.8-46.26,42.81-77.89,42.81-51.73,0-93.82-43.74-93.82-97.49s42.09-97.03,93.82-97.03Z"/><path class="cls-1" d="m753.08,158.28c-21.52-28.7-55.61-45.73-93.82-45.73-67.18,0-119.8,55.05-119.8,125.32s52.62,124.87,119.8,124.87c37.69,0,72.29-17.51,93.82-46.13v41.53h28.75V0h-28.75v158.28Zm-92.44,176.63c-51.82,0-92.43-42.62-92.43-97.03s40.61-97.49,92.43-97.49,92.44,42.82,92.44,97.49-40.61,97.03-92.44,97.03Z"/><path class="cls-1" d="m959.79,112.55c-69.34,0-121.64,53.88-121.64,125.32s54.44,124.87,123.94,124.87c40.1,0,75.74-16.38,100.34-46.11l3.93-4.77-19.75-19.75-4.75,5.76c-20.06,24.23-47.64,37.03-79.76,37.03-48.85,0-88.33-35.55-94.53-83.8h206.68l1.09-5.47c1.05-5.24,1.05-8.92,1.05-12.81,0-67.45-51.21-120.28-116.59-120.28Zm0,27.84c46.39,0,83.08,35.36,87.83,83.35h-180.01c6.5-48.72,44.24-83.35,92.18-83.35Z"/><polygon class="cls-1" points="1201.5 317.65 1122.51 117.14 1091.31 117.14 1187.7 358.15 1215.29 358.15 1311.68 117.14 1280.48 117.14 1201.5 317.65"/><path class="cls-1" d="m377.58,112.55c-69.5,0-123.94,55.05-123.94,125.32s54.44,124.87,123.94,124.87,124.41-54.85,124.41-124.87-54.65-125.32-124.41-125.32Zm0,222.36c-53.38,0-95.19-42.62-95.19-97.03s41.81-97.49,95.19-97.49,95.65,42.82,95.65,97.49-42.01,97.03-95.65,97.03Z"/><path class="cls-1" d="m1828.34,158.16c-21.57-28.29-56.03-45.61-93.36-45.61-67.18,0-119.8,55.05-119.8,125.32s52.62,124.87,119.8,124.87c37.06,0,71.97-17.67,93.36-45.74v41.71c0,67.21-48.3,91.06-89.68,91.06-46.8,0-76.98-22.69-90.8-36.2l-5.6-5.48-16.84,23.02,4.21,4.13c16.13,15.81,51.76,42.36,109.03,42.36s118.43-31.26,118.43-119.35V117.14h-28.75v41.02Zm-91.98,176.75c-51.82,0-92.43-42.62-92.43-97.03s40.61-97.49,92.43-97.49,91.98,42.82,91.98,97.49-40.41,97.03-91.98,97.03Z"/><path class="cls-1" d="m2035.05,112.55c-69.34,0-121.64,53.88-121.64,125.32s54.44,124.87,123.94,124.87c40.1,0,75.74-16.38,100.34-46.11l3.93-4.77-19.75-19.75-4.75,5.76c-20.06,24.23-47.64,37.03-79.76,37.03-48.85,0-88.33-35.55-94.53-83.8h206.68l1.09-5.47c1.05-5.24,1.05-8.92,1.05-12.81,0-67.45-51.21-120.28-116.59-120.28Zm0,27.84c46.39,0,83.08,35.36,87.83,83.35h-180.01c6.5-48.72,44.24-83.35,92.18-83.35Z"/><path class="cls-1" d="m2284.03,326.8l-8.48,4.23c-4.42,2.2-12.6,3.88-19.02,3.88-16.53,0-24.9-10.39-24.9-30.88V0h-28.75v304.95c0,36.19,19.19,57.8,51.36,57.8,10.5,0,21.44-2.32,29.23-6.23l4.35-2.18-3.78-27.54Z"/></g></svg>