<svg id="Layer_2" data-name="Layer 2" xmlns="http://www.w3.org/2000/svg" viewBox="0 0 56.46 38.32" class="fg">
  <g id="Layer_2-2" data-name="Layer 2">
    <g>
      <path d="m12.14,24.99c.03-.72.09-1.5.43-2.23.21-.43.48-.67,1.03-.66,2.09.05,3.71-.8,4.8-2.61.09-.15.3-.27.47-.31,2.49-.57,4.94.5,6.38,2.76,1.34,2.1,1.41,4.26.23,6.43-1.24,2.27-3.13,3.72-5.74,4.07-1.7.23-3.21-.33-4.6-1.3-2.12-1.5-2.94-3.71-3-6.14Z"/>
      <path d="m7.44,13.45s-.05-.05-.05-.05c-.29-.76-.29-.76.45-1.1,6.68-3.07,13.35-6.15,20.03-9.22.25-.12.5-.23.8-.37.02.17.04.29.05.42.05.6.09,1.19.14,1.79.02.24-.06.35-.29.44-4.55,1.74-9.1,3.5-13.65,5.25-2.43.94-4.86,1.87-7.29,2.81-.06.02-.12.04-.19.05Z"/>
      <path d="m18.03,6.84c-.23.12-.48.21-.69.36-.64.47-1.27.44-2.02.2C10.56,5.9,5.78,4.45.99,3c-.36-.11-.51-.27-.56-.65-.1-.75-.27-1.5-.43-2.36,6.04,2.27,12.02,4.51,18,6.75.01.03.02.06.03.09Z"/>
      <path d="m13.87,21c-2,.02-3.6-2.07-3.02-3.95.28-.91.94-1.43,1.83-1.67,1.43-.39,2.77-.18,4.01.65.95.64,1.25,1.63.8,2.67-.06.13-.13.26-.2.38-.64,1.04-2.2,1.9-3.42,1.91Z"/>
      <path d="m34.43,38.31c-.47,0-.93,0-1.4,0-.21,0-.31-.05-.3-.28.02-.34-.11-.8.07-.99.16-.18.64-.08.98-.09.68-.01,1.36,0,2.03-.01.54,0,.9-.35.91-.89.01-.67,0-1.33,0-2,0-.49-.36-.86-.81-.9-.4-.03-.82.27-.91.68-.11.46.13.87.61,1.03.18.06.26.14.25.33-.01.27-.01.53,0,.8,0,.22-.08.3-.3.27-1.16-.17-2.05-1.26-1.95-2.4.11-1.21,1.14-2.09,2.37-2.05,1.14.04,2.07,1.01,2.09,2.18.01.72.01,1.44,0,2.16-.02,1.1-.87,2.02-1.97,2.11-.55.05-1.11,0-1.66,0,0,0,0,.02,0,.03Z"/>
      <path d="m27.38,32.47c0,.51,0,1.02,0,1.53-.01,1.24-.92,2.23-2.09,2.28-1.21.06-2.23-.8-2.36-1.97-.13-1.19.7-2.26,1.92-2.48.23-.04.31.05.31.26,0,.28,0,.55,0,.83,0,.25-.18.27-.34.33-.36.15-.58.49-.55.86.03.37.29.68.67.78.35.1.74-.02.92-.35.11-.19.16-.44.16-.66.01-1.04.01-2.08,0-3.12,0-.26.07-.35.34-.33.24.02.49.01.73,0,.22-.02.3.06.3.28,0,.59,0,1.17,0,1.76h0Z"/>
      <path d="m43.4,34.07c0,1.24-1.01,2.22-2.23,2.21-1.24-.02-2.24-1.01-2.23-2.22,0-1.23,1.04-2.25,2.26-2.23,1.23.02,2.21,1.01,2.2,2.25Zm-3.09-.01c0,.48.38.87.85.87.49,0,.89-.39.9-.87,0-.48-.41-.88-.9-.87-.48,0-.85.39-.85.87Z"/>
      <path d="m54.22,36.26c-.85.04-1.65-.47-2.01-1.25-.38-.81-.23-1.79.37-2.45.63-.68,1.57-.91,2.44-.59.83.31,1.42,1.12,1.44,2.02.02.68,0,1.35,0,2.03,0,.22-.08.3-.29.28-.25-.02-.51-.03-.77-.01-.26.02-.32-.09-.31-.33.01-.61.01-1.22,0-1.83,0-.52-.32-.89-.76-.93-.46-.05-.87.24-.97.68-.1.45.14.82.64,1.02.09.03.2.14.2.21.02.37,0,.75,0,1.14Z"/>
      <path d="m32.05,34.97c0,.38,0,.76,0,1.13,0,.06-.12.17-.18.17-.64-.01-1.3.03-1.92-.09-1.05-.19-1.74-1.2-1.69-2.28.06-1.06.93-1.96,2.03-2.08,1.01-.11,2.02.56,2.32,1.56.2.65.18.67-.48.67-.06,0-.11,0-.17,0-.34.05-.58,0-.72-.4-.14-.4-.59-.55-1-.44-.35.1-.63.47-.63.85,0,.39.28.74.69.83.15.03.31.04.46.04.39,0,.78,0,1.17,0,.02,0,.04,0,.13.03Z"/>
      <path d="m12.51,36.18c.11-.14.22-.29.33-.43.28-.4.6-.79.84-1.22.21-.39.23-.83.06-1.25-.2-.51-.41-1.02-.62-1.53-.03-.09-.07-.17-.14-.35.32.27.55.49.81.67.38.25.76.51,1.17.68.4.16.55.42.62.81.13.78-.08,1.38-.76,1.83-.58.38-1.17.71-1.86.85-.13.03-.26.03-.39.04-.02-.03-.04-.06-.06-.09Z"/>
      <path d="m11.37,24.53c-1.48.57-6.69-1.35-6.85-2.54.5.17.99.34,1.48.51,1.53.53,3.09.87,4.71.94.09,0,.22.08.27.16.08.14.1.32.16.47.06.15.15.3.23.47Z"/>
      <path d="m44.27,36.29c0-1.19,0-2.3,0-3.42,0-.27-.02-.53,0-.8,0-.09.13-.23.22-.24.32-.03.64-.03.96,0,.07,0,.19.14.19.22.01,1.34.01,2.68,0,4.02,0,.07-.13.2-.21.21-.37.02-.75,0-1.17,0Z"/>
      <path d="m49.05,31.86c1.12.05,2.01.97,2.06,2.12.03.67,0,1.35,0,2.03,0,.22-.08.29-.3.28-.25-.02-.51-.02-.76,0-.23.01-.32-.07-.31-.3.01-.6,0-1.2,0-1.79,0-.4-.14-.69-.48-.92-.11-.07-.2-.25-.21-.39-.03-.34,0-.68,0-1.02Z"/>
      <path d="m24.89,19.75c-.3-.19-.58-.38-.87-.53-.28-.15-.58-.27-.9-.42.27-.19.53-.33.75-.52.99-.82,1.22-1.7.75-2.9-.12-.3-.27-.58-.41-.87-.05-.11-.09-.22-.13-.34.42,0,1.13.83,1.49,1.71.55,1.36.26,3-.68,3.87Z"/>
      <path d="m47.05,36.28c0-.69,0-1.33,0-1.96,0-.46-.08-.85-.55-1.08-.07-.04-.15-.15-.16-.23-.02-.33-.01-.66,0-1,0-.2.13-.18.28-.15.97.19,1.73,1.04,1.77,2.02.03.72.02,1.44,0,2.16,0,.08-.1.22-.15.23-.38.02-.77.01-1.19.01Z"/>
      <path d="m27.19,24.13c1.28.58,2.55,1.14,3.8,1.72.29.13.55.32.82.5.06.04.1.17.1.25,0,.03-.14.1-.22.09-.57-.07-1.15-.1-1.7-.25-.74-.19-1.45-.47-2.18-.7-.24-.08-.35-.2-.37-.47-.04-.38-.16-.75-.24-1.15Z"/>
      <path d="m20.75,9.04c.04-.07.07-.14.11-.17.34-.19.67-.39,1.02-.55.13-.06.33-.06.47,0,.81.32,1.62.66,2.43.99.55.23.56.22.38.8-.02.08-.07.16-.1.24-1.43-.44-2.85-.87-4.31-1.32Z"/>
      <path d="m29.09,7.42c.65,5.17,1.31,10.34,1.96,15.52-.03,0-.07,0-.1.01-.89-5.15-1.61-10.31-1.97-15.52.04,0,.07,0,.11,0Z"/>
      <path d="m1.02,5.85c.95,4.21,1.91,8.42,2.86,12.64-.04,0-.07.02-.11.02C2.68,14.33,1.7,10.12.91,5.87c.04,0,.07-.02.11-.03Z"/>
      <path d="m11.24,32.95c-.12-.48-.26-.95-.36-1.44-.4-1.82-.8-3.63-1.19-5.45-.02-.11.07-.24.11-.37.09.1.23.18.26.29.16.77.3,1.54.43,2.32.26,1.47.53,2.94.79,4.42.01.07.01.15.02.22-.02,0-.03,0-.05,0Z"/>
      <path d="m7.95,15.95c.45,2.05.91,4.11,1.36,6.17-.34.14-.42-.05-.46-.27-.11-.6-.21-1.2-.31-1.8-.23-1.36-.46-2.72-.7-4.08.03,0,.07-.01.1-.02Z"/>
      <path d="m24.92,11.36c-.1.55-.2,1.1-.3,1.65-.04,0-.08-.01-.11-.02.09-.55.18-1.1.27-1.65.05,0,.1.02.14.02Z"/>
    </g>
  </g>
</svg>
